<svg xmlns="http://www.w3.org/2000/svg" viewBox="-378.958 2497 21 17">
  <defs>
    <style>
      .cls-1 {
        fill: #7e7e7e;
        fill-rule: evenodd;
      }
    </style>
  </defs>
  <g id="A12_AddImage" transform="translate(-378.958 2497)">
    <path id="Fill-49" class="cls-1" d="M5.214,14H18s-2.232-4.068-2.552-4.58-.864-.627-1.41,0l-1.746,2.045a.874.874,0,0,1-1.33-.07L8.294,7.337a.786.786,0,0,0-1.27,0L3,14Z"/>
    <path id="Fill-50" class="cls-1" d="M2,0A2.006,2.006,0,0,0,0,2V15a2.006,2.006,0,0,0,2,2H19a2.006,2.006,0,0,0,2-2V2a2.006,2.006,0,0,0-2-2ZM2,2H19V15H2V2Z"/>
    <path id="Fill-51" class="cls-1" d="M13.94,5.5A1.56,1.56,0,1,1,15.5,7.06,1.562,1.562,0,0,1,13.94,5.5"/>
  </g>
</svg>
